# xmcd
#
# Track frame offsets:
#	150
#	12978
#	24713
#	33878
#	44659
#	55666
#	65805
#	78862
#	95902
#	109788
#	120368
#	132100
#	141236
#	158572
#	168997
#	177424
#
# Disc length: 2510 seconds
#
# Revision: 0
# Processed by: cddbd v1.5.1PL2 Copyright (c) Steve Scherf et al.
# Submitted via: dBpowerAMP V4.0
#
DISCID=d409cc10
DTITLE=Chocolate Love Box - Volume VI...in the key of death
DYEAR=2006
DGENRE=Grunge/Blues
TTITLE0=Emancipation of Xero
TTITLE1=Fish Reflex
TTITLE2=Topless Boys on the Top of the Hill
TTITLE3=A Child's Tears on a Car Window
TTITLE4=Poor No More
TTITLE5=Souvenir Lover Number One
TTITLE6=Jesus was a Nigger
TTITLE7=Tra
TTITLE8=Heart Smasher
TTITLE9=Fear of Life
TTITLE10=Suggested Reality
TTITLE11=The Hooker I Hated
TTITLE12=Weapons of Mass Distraction
TTITLE13=Ex-Appeal
TTITLE14=Revival of the Sickest
TTITLE15=Dandy Lyin'
EXTD=Josh Lynch - Vocals, Guitar, Keyboard, Lyrics\nSean Lynch - Drums
EXTT0=
EXTT1=
EXTT2=
EXTT3=
EXTT4=
EXTT5=
EXTT6=
EXTT7=
EXTT8=
EXTT9=
EXTT10=
EXTT11=
EXTT12=
EXTT13=
EXTT14=
EXTT15=
PLAYORDER=
